<svg width="20" height="20" viewBox="0 0 20 20" fill="none" xmlns="http://www.w3.org/2000/svg">
<path d="M20 10C20 11.9778 19.4135 13.9112 18.3147 15.5557C17.2159 17.2002 15.6541 18.4819 13.8268 19.2388C11.9996 19.9957 9.98891 20.1937 8.0491 19.8079C6.10929 19.422 4.32746 18.4696 2.92894 17.0711C1.53041 15.6725 0.578004 13.8907 0.192152 11.9509C-0.193701 10.0111 0.00433286 8.00043 0.761209 6.17317C1.51809 4.3459 2.79981 2.78412 4.4443 1.6853C6.08879 0.58649 8.02219 0 10 0C12.6513 0.00286757 15.1932 1.05736 17.0679 2.9321C18.9426 4.80684 19.9971 7.34872 20 10ZM10.8333 11.8808C10.8229 11.5908 10.889 11.3032 11.0251 11.0469C11.1611 10.7906 11.3623 10.5747 11.6083 10.4208C12.1233 10.1372 12.5541 9.72235 12.8569 9.21846C13.1598 8.71458 13.324 8.13955 13.333 7.5517C13.3419 6.96386 13.1951 6.38412 12.9077 5.87128C12.6202 5.35845 12.2022 4.93076 11.6961 4.63162C11.19 4.33247 10.6138 4.17251 10.0259 4.16795C9.43796 4.16339 8.85932 4.3144 8.34863 4.60566C7.83793 4.89691 7.41336 5.31806 7.11797 5.82638C6.82258 6.33469 6.66688 6.91209 6.66667 7.5H8.33334C8.33313 7.25481 8.38702 7.0126 8.49116 6.79063C8.59531 6.56866 8.74715 6.37241 8.93585 6.21586C9.12456 6.05931 9.34548 5.94632 9.58286 5.88495C9.82024 5.82359 10.0682 5.81535 10.3092 5.86083C10.6384 5.92474 10.941 6.08532 11.1785 6.32207C11.416 6.55883 11.5776 6.861 11.6425 7.19C11.7081 7.53534 11.6628 7.89256 11.5131 8.21062C11.3635 8.52867 11.1171 8.79125 10.8092 8.96083C10.2993 9.25622 9.87799 9.68293 9.58911 10.1965C9.30023 10.7101 9.15435 11.2917 9.16667 11.8808V12.5H10.8333V11.8808ZM10.8333 14.1667H9.16667V15.8333H10.8333V14.1667Z" fill="white"/>
</svg>
