<svg width="512" height="512" viewBox="0 0 512 512" xmlns="http://www.w3.org/2000/svg">
<g clip-path="url(#clip0_435_3760)">
<path d="M405.333 512H106.667C47.8507 512 0 464.149 0 405.333V207.445C0 171.925 17.5787 138.859 47.0187 119.019L196.331 18.24C232.576 -6.20801 279.424 -6.20801 315.669 18.24L465.003 119.019C494.421 138.859 512 171.904 512 207.445V405.333C512 464.149 464.149 512 405.333 512ZM256 42.6027C243.541 42.6027 231.083 46.272 220.203 53.632L70.8693 154.389C53.2053 166.293 42.6667 186.112 42.6667 207.424V405.312C42.6667 440.597 71.3813 469.312 106.667 469.312H405.333C440.619 469.312 469.333 440.597 469.333 405.312V207.445C469.333 186.133 458.795 166.293 441.152 154.411L291.797 53.632C280.917 46.272 268.459 42.6027 256 42.6027Z"/>
</g>
<defs>
<clipPath id="clip0_435_3760">
<rect width="512" height="512"/>
</clipPath>
</defs>
</svg>