<svg width="19" height="20" viewBox="0 0 19 20" fill="none" xmlns="http://www.w3.org/2000/svg">
<path d="M10.708 2.63904C9.99004 2.0704 8.98632 2.07055 8.26562 2.64099L8.26465 2.64001L2.68359 7.11951L2.68164 7.12146C2.33644 7.38378 2.14471 7.7639 2.14062 8.17419V15.5961C2.14062 16.8031 3.13586 17.7875 4.3623 17.7875H6.00195C6.17996 17.7875 6.32017 17.6473 6.32031 17.4799C6.32031 17.4268 6.32685 17.3742 6.33691 17.3246V14.8656C6.33703 13.7965 7.21226 12.9236 8.28516 12.9164H10.751C11.8317 12.9166 12.7118 13.7904 12.7119 14.8656V17.4877C12.7119 17.6493 12.841 17.7822 13.0127 17.7875H14.6377C15.8641 17.7875 16.8594 16.8031 16.8594 15.5961V8.16052L16.8486 8.01013C16.8035 7.66368 16.6202 7.34439 16.3301 7.12244L16.3281 7.12146L10.708 2.63904ZM18.3379 15.5961C18.3379 17.6205 16.6776 19.267 14.6377 19.267H12.9951C12.0026 19.2434 11.2334 18.462 11.2334 17.4877V14.8656C11.2333 14.6086 11.019 14.3961 10.751 14.3959H8.29102L8.19531 14.4056C7.97962 14.4509 7.81554 14.6421 7.81543 14.8656V17.4799C7.81541 17.5463 7.80655 17.6113 7.78906 17.6742L7.7627 17.8392C7.59491 18.653 6.86909 19.267 6.00195 19.267H4.3623C2.32237 19.267 0.662109 17.6205 0.662109 15.5961V8.16638C0.671027 7.28904 1.07474 6.48477 1.77246 5.95544L7.34375 1.48474V1.48376C8.60684 0.483123 10.3683 0.483767 11.6289 1.48279L17.2373 5.95642C17.9208 6.47725 18.3264 7.28102 18.3379 8.1488V15.5961Z" stroke-width="0.2"/>
</svg>