<svg width="19" height="20" viewBox="0 0 19 20" fill="none" xmlns="http://www.w3.org/2000/svg">
<path d="M6.87398 18.0407V15.2383C6.87398 14.5229 7.45816 13.943 8.17877 13.943H10.8129C11.159 13.943 11.4909 14.0795 11.7356 14.3224C11.9803 14.5653 12.1177 14.8948 12.1177 15.2383V18.0407C12.1155 18.3381 12.233 18.6241 12.4441 18.8352C12.6552 19.0462 12.9424 19.165 13.242 19.165H15.0391C15.8785 19.1671 16.6842 18.8376 17.2784 18.2492C17.8727 17.6608 18.2067 16.8618 18.2067 16.0285V8.04493C18.2067 7.37186 17.9062 6.73341 17.3861 6.30158L11.2725 1.45439C10.209 0.604518 8.68529 0.631958 7.65357 1.51957L1.67948 6.30158C1.13483 6.72068 0.8093 7.36102 0.793213 8.04493V16.0204C0.793213 17.7571 2.21139 19.165 3.96079 19.165H5.71691C6.33916 19.165 6.84486 18.6666 6.84937 18.0489L6.87398 18.0407Z" fill="white"/>
</svg>