<svg width="19" height="20" viewBox="0 0 19 20" fill="none" xmlns="http://www.w3.org/2000/svg">
<path d="M16.3505 6.5837H15.9858V2.26101C15.9858 1.87745 15.7306 1.54098 15.3616 1.43653C11.3086 0.29443 7.69394 0.29443 3.64008 1.43653C3.27108 1.54098 3.01594 1.87745 3.01594 2.26101V6.5837H2.65122C1.40553 6.5837 0.391846 7.59739 0.391846 8.84308V9.57766C0.391846 11.617 2.05106 13.2754 4.08956 13.2754H5.65545C5.93713 13.468 6.23763 13.6375 6.55441 13.7822C7.01159 13.9903 7.24789 14.5057 7.11604 15.0065L6.40458 17.7077H5.01505C4.5416 17.7077 4.1589 18.0904 4.1589 18.5638C4.1589 19.0373 4.5416 19.42 5.01505 19.42H13.9849C14.4584 19.42 14.8411 19.0373 14.8411 18.5638C14.8411 18.0904 14.4584 17.7077 13.9849 17.7077H12.5954L11.8839 15.0074C11.753 14.5057 11.9884 13.9903 12.4456 13.7822C12.7624 13.6384 13.0629 13.468 13.3445 13.2754H14.9104C16.9498 13.2754 18.6081 11.6162 18.6081 9.57766V8.84308C18.6081 7.59739 17.5945 6.5837 16.3488 6.5837H16.3505ZM2.105 9.57766V8.84308C2.105 8.54086 2.34986 8.296 2.65208 8.296H3.0168C3.02022 9.47663 3.37039 10.605 3.98682 11.5605C2.93975 11.5066 2.105 10.6376 2.105 9.57766ZM11.7375 12.224C10.5192 12.7779 9.88483 14.1315 10.229 15.4431L10.8249 17.7085H8.17596L8.77184 15.4431C9.11601 14.1324 8.4816 12.7797 7.2633 12.2249C5.72309 11.5237 4.72739 9.97406 4.72739 8.27802V2.91853C8.00302 2.08892 10.9961 2.08892 14.2717 2.91853V8.27717C14.2717 9.9732 13.276 11.5228 11.7358 12.224H11.7375ZM16.8967 9.57766C16.8967 10.6384 16.062 11.5066 15.0149 11.5605C15.6322 10.605 15.9815 9.47578 15.9849 8.296H16.3496C16.6518 8.296 16.8967 8.54086 16.8967 8.84308V9.57766Z" stroke="transparent" />
</svg>
