<svg width="512" height="512" viewBox="0 0 512 512" xmlns="http://www.w3.org/2000/svg">
<g clip-path="url(#clip0_435_3762)">
<path d="M321.941 341.334C462.101 340.566 512 266.326 512 202.667C511.987 185.602 506.128 169.056 495.399 155.784C484.67 142.513 469.719 133.317 453.035 129.729C455.936 121.473 458.453 113.899 460.139 108.161C463.863 95.6795 464.594 82.4965 462.274 69.6799C459.954 56.8633 454.647 44.7735 446.784 34.39C438.857 23.6782 428.519 14.9833 416.607 9.00886C404.696 3.03447 391.545 -0.0515249 378.219 0.000650755H133.781C120.455 -0.0515249 107.304 3.03447 95.3927 9.00886C83.481 14.9833 73.1432 23.6782 65.216 34.39C57.3527 44.7735 52.046 56.8633 49.7258 69.6799C47.4056 82.4965 48.1372 95.6795 51.8613 108.161C53.5467 113.899 56.128 121.473 58.9653 129.729C42.2813 133.317 27.33 142.513 16.6011 155.784C5.87228 169.056 0.0133606 185.602 0 202.667C0 266.326 49.8987 340.566 190.059 341.334C191.305 347.81 191.954 354.387 192 360.982V426.667C192.367 432.365 191.514 438.076 189.5 443.419C187.485 448.762 184.355 453.614 180.317 457.651C176.28 461.689 171.428 464.819 166.085 466.834C160.742 468.848 155.031 469.701 149.333 469.334H128C122.342 469.334 116.916 471.582 112.915 475.582C108.914 479.583 106.667 485.009 106.667 490.667C106.667 496.325 108.914 501.752 112.915 505.752C116.916 509.753 122.342 512.001 128 512.001H384C389.658 512.001 395.084 509.753 399.085 505.752C403.086 501.752 405.333 496.325 405.333 490.667C405.333 485.009 403.086 479.583 399.085 475.582C395.084 471.582 389.658 469.334 384 469.334H362.837C357.127 469.719 351.4 468.881 346.04 466.875C340.68 464.869 335.809 461.742 331.754 457.704C327.699 453.665 324.553 448.807 322.526 443.455C320.499 438.102 319.638 432.379 320 426.667V360.961C320.047 354.373 320.696 347.803 321.941 341.334ZM437.333 170.667C445.82 170.667 453.96 174.039 459.961 180.04C465.962 186.041 469.333 194.18 469.333 202.667C469.333 246.059 435.008 292.267 340.565 298.027C345.289 291.581 350.744 285.703 356.821 280.513C390.827 249.878 417.929 212.362 436.331 170.454C436.672 170.475 436.971 170.667 437.333 170.667ZM42.6667 202.667C42.6667 194.18 46.0381 186.041 52.0393 180.04C58.0404 174.039 66.1797 170.667 74.6667 170.667C75.0293 170.667 75.328 170.475 75.6693 170.454C94.0705 212.362 121.173 249.878 155.179 280.513C161.256 285.703 166.711 291.581 171.435 298.027C76.992 292.267 42.6667 246.059 42.6667 202.667ZM224.277 469.334C231.33 456.233 234.907 441.544 234.667 426.667V360.982C234.741 339.517 230.14 318.294 221.184 298.787C212.228 279.28 199.132 261.957 182.805 248.022C139.425 206.562 108.28 153.971 92.7787 96.0007C90.9571 89.8817 90.6066 83.4191 91.7558 77.139C92.9051 70.859 95.5215 64.9393 99.392 59.862C103.372 54.4972 108.559 50.1449 114.533 47.1577C120.508 44.1704 127.102 42.6321 133.781 42.6673H378.219C384.906 42.642 391.504 44.1934 397.479 47.1957C403.454 50.1981 408.637 54.5668 412.608 59.9473C416.479 65.0246 419.095 70.9443 420.244 77.2244C421.393 83.5044 421.043 89.9671 419.221 96.086C403.705 154.025 372.562 206.585 329.195 248.022C312.869 261.953 299.773 279.272 290.817 298.775C281.86 318.279 277.259 339.499 277.333 360.961V426.667C277.093 441.544 280.67 456.233 287.723 469.334H224.277Z"/>
</g>
<defs>
<clipPath id="clip0_435_3762">
<rect width="512" height="512"/>
</clipPath>
</defs>
</svg>