<svg width="19" height="20" viewBox="0 0 19 20" fill="none" xmlns="http://www.w3.org/2000/svg">
<path d="M16.1594 6.41953H15.8057V2.22107C15.8057 1.846 15.5574 1.51804 15.1995 1.41614C11.2579 0.301229 7.74189 0.301229 3.80031 1.41614C3.44152 1.51804 3.19405 1.846 3.19405 2.22107V6.41953H2.8404C1.61502 6.41953 0.619141 7.41798 0.619141 8.64592V9.36265C0.619141 11.3647 2.2427 12.9934 4.2396 12.9934H5.79208C6.05754 13.1732 6.33926 13.3316 6.63554 13.4678C7.07996 13.6707 7.30945 14.1734 7.18186 14.6623L6.60728 16.851H5.13872C4.4297 16.851 3.85426 17.4265 3.85426 18.1355C3.85426 18.8445 4.4297 19.42 5.13872 19.42H13.861C14.5701 19.42 15.1455 18.8445 15.1455 18.1355C15.1455 17.4265 14.5701 16.851 13.861 16.851H12.3925L11.8179 14.6632C11.6903 14.1734 11.9198 13.6707 12.3642 13.4678C12.6614 13.3325 12.9431 13.1732 13.2077 12.9934H14.7602C16.7562 12.9934 18.3806 11.3647 18.3806 9.36265V8.64592C18.3806 7.41798 17.3847 6.41953 16.1594 6.41953ZM2.33175 9.36265V8.64592C2.33175 8.36249 2.56038 8.13214 2.8404 8.13214H3.19491C3.20261 9.2676 3.53657 10.3543 4.12485 11.2765C3.1264 11.2166 2.33261 10.3808 2.33261 9.36179L2.33175 9.36265ZM16.668 9.36265C16.668 10.3817 15.8742 11.2174 14.8758 11.2773C15.464 10.3551 15.798 9.26846 15.8057 8.133H16.1602C16.4402 8.133 16.6689 8.36334 16.6689 8.64678V9.36351L16.668 9.36265Z" fill="white"/>
</svg>
