<svg width="21" height="21" viewBox="0 0 21 21" fill="none" xmlns="http://www.w3.org/2000/svg">
<path d="M8.89225 6.61653C8.77475 6.61653 8.65725 6.57903 8.55892 6.50569C8.36975 6.36403 8.29142 6.11903 8.36225 5.89403L8.88475 4.21819L7.56392 3.14319C7.38642 2.99236 7.32142 2.74653 7.40225 2.52819C7.48225 2.30986 7.69058 2.16403 7.92392 2.16403H9.59142L10.1814 0.508193C10.2614 0.29236 10.4697 0.148193 10.7014 0.148193C10.9331 0.148193 11.1414 0.29236 11.2222 0.50986L11.8122 2.16569H13.4797C13.7131 2.16569 13.9214 2.31153 14.0014 2.53069C14.0814 2.74986 14.0156 2.99569 13.8372 3.14653L12.5231 4.21736L13.0664 5.87319C13.1406 6.09736 13.0656 6.34403 12.8781 6.48819C12.6906 6.63236 12.4331 6.64236 12.2356 6.51403L10.7056 5.51736L9.20142 6.52403C9.10808 6.58653 8.99975 6.61819 8.89225 6.61819V6.61653ZM11.5347 7.64819H9.86808C8.71725 7.64819 7.78475 8.58069 7.78475 9.73153V18.0649C7.78475 19.2157 8.71725 20.1482 9.86808 20.1482H11.5347C12.6856 20.1482 13.6181 19.2157 13.6181 18.0649V9.73153C13.6181 8.58069 12.6856 7.64819 11.5347 7.64819ZM18.6181 13.4815H17.3681C16.2172 13.4815 15.2847 14.414 15.2847 15.5649V18.0649C15.2847 19.2157 16.2172 20.1482 17.3681 20.1482H18.6181C19.7689 20.1482 20.7014 19.2157 20.7014 18.0649V15.5649C20.7014 14.414 19.7689 13.4815 18.6181 13.4815ZM4.03475 10.9815H2.78475C1.63392 10.9815 0.701416 11.914 0.701416 13.0649V18.0649C0.701416 19.2157 1.63392 20.1482 2.78475 20.1482H4.03475C5.18558 20.1482 6.11808 19.2157 6.11808 18.0649V13.0649C6.11808 11.914 5.18558 10.9815 4.03475 10.9815Z" stroke="transparent"/>
</svg>