<svg width="512" height="512" viewBox="0 0 512 512" xmlns="http://www.w3.org/2000/svg">
<path d="M437.333 341.333H362.667V266.667C362.667 225.493 329.173 192 288 192H224C182.827 192 149.333 225.493 149.333 266.667V277.333H74.6667C33.4933 277.333 0 310.827 0 352V437.333C0 478.507 33.4933 512 74.6667 512H437.333C478.507 512 512 478.507 512 437.333V416C512 374.827 478.507 341.333 437.333 341.333ZM192 266.667C192 249.024 206.357 234.667 224 234.667H288C305.643 234.667 320 249.024 320 266.667V469.333H192V266.667ZM42.6667 437.333V352C42.6667 334.357 57.024 320 74.6667 320H149.333V469.333H74.6667C57.024 469.333 42.6667 454.976 42.6667 437.333ZM469.333 437.333C469.333 454.976 454.976 469.333 437.333 469.333H362.667V384H437.333C454.976 384 469.333 398.357 469.333 416V437.333ZM171.541 60.9493C173.589 55.36 178.923 51.6266 184.896 51.6266H227.584L242.688 9.2373C244.757 3.6693 250.069 -0.0213623 256.021 -0.0213623C261.973 -0.0213623 267.285 3.6693 269.355 9.2373L284.459 51.6266H327.147C333.12 51.6266 338.453 55.36 340.501 60.9706C342.549 66.5813 340.864 72.8746 336.299 76.736L302.656 104.149L316.565 146.539C318.464 152.277 316.544 158.592 311.744 162.283C306.944 165.973 300.352 166.229 295.296 162.944L256.128 137.429L217.621 163.2C215.232 164.8 212.459 165.611 209.707 165.611C206.699 165.611 203.691 164.651 201.173 162.773C196.331 159.147 194.325 152.875 196.139 147.115L209.515 104.213L175.701 76.6933C171.157 72.832 169.472 66.5386 171.541 60.9493Z"/>
</svg>