<svg width="25" height="25" viewBox="0 0 25 25" fill="none" xmlns="http://www.w3.org/2000/svg">
<path d="M21 16.5003H17.5V13.0005C17.5 11.0706 15.93 9.50063 14 9.50063H11C9.07 9.50063 7.5 11.0706 7.5 13.0005V13.5005H4C2.07 13.5005 0.5 15.0704 0.5 17.0003V21.0001C0.5 22.9301 2.07 24.5 4 24.5H21C22.93 24.5 24.5 22.9301 24.5 21.0001V20.0002C24.5 18.0703 22.93 16.5003 21 16.5003ZM9.5 13.0005C9.5 12.1735 10.173 11.5005 11 11.5005H14C14.827 11.5005 15.5 12.1735 15.5 13.0005V22.5001H9.5V13.0005ZM2.5 21.0001V17.0003C2.5 16.1733 3.173 15.5004 4 15.5004H7.5V22.5001H4C3.173 22.5001 2.5 21.8271 2.5 21.0001ZM22.5 21.0001C22.5 21.8271 21.827 22.5001 21 22.5001H17.5V18.5002H21C21.827 18.5002 22.5 19.1732 22.5 20.0002V21.0001ZM8.541 3.35788C8.637 3.09589 8.887 2.9209 9.167 2.9209H11.168L11.876 0.933982C11.973 0.672993 12.222 0.5 12.501 0.5C12.78 0.5 13.029 0.672993 13.126 0.933982L13.834 2.9209H15.835C16.115 2.9209 16.365 3.09589 16.461 3.35888C16.557 3.62187 16.478 3.91686 16.264 4.09785L14.687 5.3828L15.339 7.36971C15.428 7.6387 15.338 7.93469 15.113 8.10768C14.888 8.28068 14.579 8.29268 14.342 8.13868L12.506 6.94273L10.701 8.15068C10.589 8.22568 10.459 8.26368 10.33 8.26368C10.189 8.26368 10.048 8.21868 9.93 8.13068C9.703 7.96069 9.609 7.6667 9.694 7.39671L10.321 5.3858L8.736 4.09585C8.523 3.91486 8.444 3.61987 8.541 3.35788Z" stroke="transparent"/>
</svg>