<svg width="21" height="21" viewBox="0 0 21 21" fill="none" xmlns="http://www.w3.org/2000/svg">
<path d="M20.7017 15.9815V4.31486C20.7017 2.01736 18.8325 0.148193 16.535 0.148193H4.86833C2.57083 0.148193 0.70166 2.01736 0.70166 4.31486V15.9815C0.70166 18.279 2.57083 20.1482 4.86833 20.1482H16.535C18.8325 20.1482 20.7017 18.279 20.7017 15.9815ZM11.7575 9.12319L13.3358 7.64819H6.53499C6.07499 7.64819 5.70166 7.27569 5.70166 6.81486C5.70166 6.35403 6.07499 5.98153 6.53499 5.98153H13.3742L11.7792 4.38653C11.4533 4.06069 11.4533 3.53403 11.7792 3.20819C12.105 2.88236 12.6317 2.88236 12.9575 3.20819L15.0917 5.34236C15.9042 6.15486 15.9042 7.47653 15.0917 8.28819L12.895 10.3407C12.5592 10.6549 12.0317 10.6365 11.7167 10.3007C11.5667 10.1407 11.4925 9.93569 11.4925 9.73153C11.4925 9.50819 11.5808 9.28653 11.7567 9.12319H11.7575ZM8.44583 17.089L6.31166 14.9549C5.90583 14.549 5.70249 14.0157 5.70249 13.4815C5.70249 12.9474 5.90583 12.4149 6.31166 12.0082L8.44583 9.87403C8.77166 9.54819 9.29833 9.54819 9.62416 9.87403C9.94999 10.1999 9.94999 10.7265 9.62416 11.0524L8.02916 12.6474H14.8683C15.3283 12.6474 15.7017 13.0199 15.7017 13.4807C15.7017 13.9415 15.3283 14.314 14.8683 14.314H8.02916L9.62416 15.909C9.94999 16.2349 9.94999 16.7615 9.62416 17.0874C9.29833 17.4132 8.77166 17.4132 8.44583 17.0874V17.089Z" fill="white"/>
</svg>
