<svg width="21" height="20" viewBox="0 0 21 20" fill="none" xmlns="http://www.w3.org/2000/svg">
<path d="M20.2837 15.8333V4.16667C20.2837 1.86917 18.4145 0 16.117 0H4.45036C2.15286 0 0.283691 1.86917 0.283691 4.16667V15.8333C0.283691 18.1308 2.15286 20 4.45036 20H16.117C18.4145 20 20.2837 18.1308 20.2837 15.8333ZM4.45036 18.3333C3.07203 18.3333 1.95036 17.2117 1.95036 15.8333V4.16667C1.95036 2.78833 3.07203 1.66667 4.45036 1.66667H16.117C17.4954 1.66667 18.617 2.78833 18.617 4.16667V15.8333C18.617 17.2117 17.4954 18.3333 16.117 18.3333H4.45036ZM11.0745 9.58333C11.0745 9.36 11.1629 9.13833 11.3387 8.975L12.917 7.5H6.11619C5.65619 7.5 5.28286 7.1275 5.28286 6.66667C5.28286 6.20583 5.65619 5.83333 6.11619 5.83333H12.9554L11.3604 4.23833C11.0345 3.9125 11.0345 3.38583 11.3604 3.06C11.6862 2.73417 12.2129 2.73417 12.5387 3.06L14.6729 5.19417C15.062 5.58333 15.2829 6.25083 15.2829 6.6675C15.2829 7.08417 15.062 7.75083 14.6729 8.14083L12.4762 10.1933C12.1404 10.5075 11.6129 10.4892 11.2979 10.1533C11.1479 9.99333 11.0737 9.78833 11.0737 9.58417L11.0745 9.58333ZM9.20619 16.94C8.88036 17.2658 8.35369 17.2658 8.02786 16.94L5.89369 14.8058C5.50453 14.4167 5.28369 13.7492 5.28369 13.3325C5.28369 12.9158 5.50453 12.2492 5.89369 11.8592L8.02786 9.725C8.35369 9.39917 8.88036 9.39917 9.20619 9.725C9.53202 10.0508 9.53202 10.5775 9.20619 10.9033L7.61119 12.4983H14.4504C14.9104 12.4983 15.2837 12.8708 15.2837 13.3317C15.2837 13.7925 14.9104 14.165 14.4504 14.165H7.61119L9.20619 15.76C9.53202 16.0858 9.53202 16.6125 9.20619 16.9383V16.94Z" fill="white"/>
</svg>
