<svg width="512" height="512" viewBox="0 0 512 512" xmlns="http://www.w3.org/2000/svg">
<g clip-path="url(#clip0_435_3766)">
<path d="M0 106.667V405.333C0 464.149 47.8507 512 106.667 512H405.333C464.149 512 512 464.149 512 405.333V106.667C512 47.8507 464.149 -1.52588e-05 405.333 -1.52588e-05H106.667C47.8507 -1.52588e-05 0 47.8507 0 106.667ZM405.333 42.6667C440.619 42.6667 469.333 71.3813 469.333 106.667V405.333C469.333 440.619 440.619 469.333 405.333 469.333H106.667C71.3813 469.333 42.6667 440.619 42.6667 405.333V106.667C42.6667 71.3813 71.3813 42.6667 106.667 42.6667H405.333ZM235.755 266.667C235.755 272.384 233.493 278.059 228.992 282.24L188.587 320H362.688C374.464 320 384.021 329.536 384.021 341.333C384.021 353.131 374.464 362.667 362.688 362.667H187.605L228.437 403.499C236.779 411.84 236.779 425.323 228.437 433.664C220.096 442.005 206.613 442.005 198.272 433.664L143.637 379.029C133.675 369.067 128.021 351.979 128.021 341.312C128.021 330.645 133.675 313.579 143.637 303.595L199.872 251.051C208.469 243.008 221.973 243.477 230.037 252.075C233.877 256.171 235.776 261.419 235.776 266.645L235.755 266.667ZM283.584 78.336C291.925 69.9947 305.408 69.9947 313.749 78.336L368.384 132.971C378.347 142.933 384 160.021 384 170.688C384 181.355 378.347 198.421 368.384 208.405L313.749 263.04C305.408 271.381 291.925 271.381 283.584 263.04C275.243 254.699 275.243 241.216 283.584 232.875L324.416 192.043H149.333C137.557 192.043 128 182.507 128 170.709C128 158.912 137.557 149.376 149.333 149.376H324.416L283.584 108.544C275.243 100.203 275.243 86.72 283.584 78.3786V78.336Z"/>
</g>
<defs>
<clipPath id="clip0_435_3766">
<rect width="512" height="512" transform="matrix(0 -1 1 0 0 512)"/>
</clipPath>
</defs>
</svg>